<?xml version="1.0" encoding="UTF-8" standalone="no"?>
<svg
   xmlns:dc="http://purl.org/dc/elements/1.1/"
   xmlns:cc="http://creativecommons.org/ns#"
   xmlns:rdf="http://www.w3.org/1999/02/22-rdf-syntax-ns#"
   xmlns:svg="http://www.w3.org/2000/svg"
   xmlns="http://www.w3.org/2000/svg"
   xmlns:sodipodi="http://sodipodi.sourceforge.net/DTD/sodipodi-0.dtd"
   xmlns:inkscape="http://www.inkscape.org/namespaces/inkscape"
   width="16"
   height="16"
   viewBox="0 0 4.2333332 4.2333333"
   version="1.1"
   id="svg2332"
   inkscape:version="1.0 (4035a4fb49, 2020-05-01)"
   sodipodi:docname="safari-pinned-tab.svg">
  <defs
     id="defs2326" />
  <sodipodi:namedview
     id="base"
     pagecolor="#ffffff"
     bordercolor="#666666"
     borderopacity="1.0"
     inkscape:pageopacity="0.0"
     inkscape:pageshadow="2"
     inkscape:zoom="44.8"
     inkscape:cx="9.9275918"
     inkscape:cy="8.2440019"
     inkscape:document-units="px"
     inkscape:current-layer="layer1"
     inkscape:document-rotation="0"
     showgrid="false"
     inkscape:window-width="1920"
     inkscape:window-height="1000"
     inkscape:window-x="2869"
     inkscape:window-y="-11"
     inkscape:window-maximized="1"
     units="px" />
  <metadata
     id="metadata2329">
    <rdf:RDF>
      <cc:Work
         rdf:about="">
        <dc:format>image/svg+xml</dc:format>
        <dc:type
           rdf:resource="http://purl.org/dc/dcmitype/StillImage" />
        <dc:title></dc:title>
      </cc:Work>
    </rdf:RDF>
  </metadata>
  <g
     inkscape:label="Capa 1"
     inkscape:groupmode="layer"
     id="layer1">
    <g
       id="g1502">
      <path
         id="rect2915-9-1"
         style="opacity:0.999;fill:#000000;fill-opacity:1;stroke:none;stroke-width:0.316865;stroke-linejoin:round;stroke-opacity:1"
         d="M 10.443359,0.28515625 A 5.1441507,5.1441507 0 0 0 5.3261719,5.4296875 5.1441507,5.1441507 0 0 0 6.4589844,8.6503906 L 0.59765625,14.513672 c -0.27988479,0.279881 -0.28403899,0.725714 -0.009766,1 0.27428599,0.274284 0.72011855,0.270082 0.99999995,-0.0098 L 7.4765625,9.6132812 A 5.1441507,5.1441507 0 0 0 10.46875,10.574219 5.1441507,5.1441507 0 0 0 15.613281,5.4296875 5.1441507,5.1441507 0 0 0 10.46875,0.28515625 a 5.1441507,5.1441507 0 0 0 -0.02539,0 z m 0.02734,1.14453125 c 2.20631,-3e-7 4,1.7936899 4,4 0,2.2063095 -1.79369,4.0019535 -4,4.0019531 -2.2063082,-7e-7 -4.001953,-1.7956444 -4.001953,-4.0019531 0,-2.2063098 1.7956448,-3.9999995 4.001953,-4 z"
         transform="scale(0.26458333)" />
      <path
         id="path2913-5-6-7"
         style="fill:#000000;fill-opacity:1;stroke:none;stroke-width:0.222059;stroke-linejoin:round;stroke-opacity:1"
         d="M 10.46875,1.7148438 A 3.7152204,3.7152204 0 0 0 6.7539062,5.4296875 3.7152204,3.7152204 0 0 0 10.46875,9.1445312 3.7152204,3.7152204 0 0 0 14.185547,5.4296875 3.7152204,3.7152204 0 0 0 10.46875,1.7148438 Z M 9.53125,2.8691406 A 1.1531174,0.99073094 0 0 1 10.683594,3.8613281 1.1531174,0.99073094 0 0 1 9.53125,4.8515625 1.1531174,0.99073094 0 0 1 8.3789062,3.8613281 1.1531174,0.99073094 0 0 1 9.53125,2.8691406 Z"
         transform="scale(0.26458333)" />
    </g>
  </g>
</svg>
